<svg width="19" height="21" viewBox="0 0 19 21" fill="none" xmlns="http://www.w3.org/2000/svg">
<path d="M5.74318 8.76504V4.45874C5.74591 3.54285 6.11595 2.66514 6.7726 2.01719C7.42925 1.36924 8.31926 1.00359 9.24835 1C10.178 1.00269 11.0688 1.36798 11.7262 2.01603C12.3836 2.66407 12.7542 3.54227 12.7569 4.45874V8.76504M17.481 16.3973L16.4243 8.68337C16.3243 8.04732 15.9937 7.46856 15.4941 7.05423C14.9944 6.6399 14.3594 6.41801 13.7065 6.42973H4.79349C4.14065 6.41801 3.50562 6.6399 3.00595 7.05423C2.50628 7.46856 2.17585 8.04732 2.07576 8.68337L1.01903 16.3973C0.969544 16.84 1.01686 17.288 1.15772 17.7111C1.29857 18.1342 1.52973 18.5228 1.83565 18.8505C2.14157 19.1782 2.51516 19.4374 2.93125 19.6108C3.34735 19.7843 3.79631 19.8679 4.24792 19.856H14.2626C14.7133 19.8665 15.1611 19.7818 15.5759 19.6077C15.9908 19.4336 16.363 19.174 16.6678 18.8465C16.9726 18.519 17.2028 18.131 17.3431 17.7086C17.4833 17.2862 17.5303 16.8391 17.481 16.3973Z" stroke="#F8F8F8" stroke-width="1.17857" stroke-linecap="round" stroke-linejoin="round"/>
</svg>
