<svg width="44" height="44" viewBox="0 0 44 44" fill="none" xmlns="http://www.w3.org/2000/svg">
<g filter="url(#filter0_d_76_525)">
<rect x="4" width="36" height="36" rx="10" fill="white" shape-rendering="crispEdges"/>
<path d="M25.2404 31.0531C31.1678 30.6607 35.8881 25.8724 36.2763 19.8614C36.3514 18.6856 36.3514 17.4673 36.2763 16.2914C35.8881 10.2819 31.1678 5.49644 25.2404 5.10119C23.1932 4.96627 21.1393 4.96627 19.0921 5.10119C13.1648 5.49502 8.44445 10.2819 8.05628 16.2929C7.98124 17.4817 7.98124 18.674 8.05628 19.8629C8.19795 22.0516 9.16553 24.0788 10.3059 25.7902C10.9675 26.9873 10.5312 28.4818 9.84128 29.7894C9.34545 30.7315 9.09611 31.2019 9.29586 31.5419C9.4942 31.8819 9.94045 31.8932 10.8315 31.9144C12.5953 31.9569 13.7839 31.4583 14.7274 30.7627C15.2614 30.3674 15.5292 30.1705 15.7134 30.1478C15.8975 30.1252 16.2616 30.2754 16.9869 30.5729C17.6386 30.842 18.3965 31.0078 19.0907 31.0545C21.1094 31.1877 23.2189 31.1877 25.2419 31.0545" stroke="#FFB0B0" stroke-width="1.5" stroke-linecap="round" stroke-linejoin="round"/>
<path d="M16 22.5L18.6095 14.6715C18.675 14.4761 18.8002 14.3063 18.9675 14.186C19.1348 14.0656 19.3356 14.0009 19.5417 14.0009C19.7477 14.0009 19.9486 14.0656 20.1158 14.186C20.2831 14.3063 20.4083 14.4761 20.4738 14.6715L23.0833 22.5M27.3333 14L27.3333 22.5M17.4167 19.6667L21.6667 19.6667" stroke="#FFB0B0" stroke-width="1.5" stroke-linecap="round" stroke-linejoin="round"/>
</g>
<defs>
<filter id="filter0_d_76_525" x="0" y="0" width="44" height="44" filterUnits="userSpaceOnUse" color-interpolation-filters="sRGB">
<feFlood flood-opacity="0" result="BackgroundImageFix"/>
<feColorMatrix in="SourceAlpha" type="matrix" values="0 0 0 0 0 0 0 0 0 0 0 0 0 0 0 0 0 0 127 0" result="hardAlpha"/>
<feOffset dy="4"/>
<feGaussianBlur stdDeviation="2"/>
<feComposite in2="hardAlpha" operator="out"/>
<feColorMatrix type="matrix" values="0 0 0 0 0 0 0 0 0 0 0 0 0 0 0 0 0 0 0.25 0"/>
<feBlend mode="normal" in2="BackgroundImageFix" result="effect1_dropShadow_76_525"/>
<feBlend mode="normal" in="SourceGraphic" in2="effect1_dropShadow_76_525" result="shape"/>
</filter>
</defs>
</svg>
