<svg width="49" height="62" viewBox="0 0 49 62" fill="none" xmlns="http://www.w3.org/2000/svg">
<rect width="49" height="62" rx="24.5" fill="#FFF7D1"/>
<path d="M19.9024 37.1019C19.0929 39.1432 18.4755 41.2631 18.0589 43.4314C17.7671 45.0502 17.5367 47.7215 18.8731 48.8871C19.141 49.1579 19.4724 49.3486 19.8334 49.4396C20.1945 49.5306 20.572 49.5186 20.9271 49.4048C21.2823 49.2911 21.6022 49.0796 21.8541 48.7922C22.106 48.5049 22.2807 48.1523 22.3602 47.7702C22.5599 46.378 22.1758 40.1776 22.1298 38.5749C22.1298 37.5227 22.1298 36.4542 22.1298 35.3372C22.1298 29.3475 21.9301 19.3758 21.9147 13.3861C21.9022 13.2047 21.8408 13.0305 21.7377 12.8846C21.6346 12.7387 21.4941 12.6271 21.3327 12.5625C21.1713 12.4979 20.9958 12.4829 20.8268 12.5198C20.6577 12.5567 20.5023 12.6439 20.3786 12.7708C16.3846 17.8701 14.6794 24.5075 17.1526 30.7886C17.5703 31.9266 18.2492 32.9376 19.1285 33.7314C20.0078 34.5253 21.06 35.0769 22.1912 35.3372M28.6585 28.2793C28.4741 31.776 27.7675 35.2078 27.3066 38.6721C26.8921 40.8899 26.6914 43.146 26.7075 45.4063C26.8304 47.1385 27.4296 49.4696 29.4573 49.4858C30.013 49.5035 30.5569 49.3146 30.9934 48.9519C31.4822 48.4318 31.8182 47.7739 31.9612 47.0575C32.2053 45.9988 32.2934 44.9068 32.2223 43.8199C32.2223 42.0877 31.8383 40.4043 31.6079 38.7045C31.147 35.2402 30.4404 31.8084 30.2561 28.3117M28.0747 13.1268V21.221M30.9012 21.1724V13.0782M25.5708 13.1268V24.216C25.5748 25.3009 25.9856 26.3403 26.7136 27.1075C27.4416 27.8746 28.4278 28.3074 29.4573 28.3117C30.4868 28.3074 31.473 27.8746 32.201 27.1075C32.9289 26.3403 33.3397 25.3009 33.3437 24.216V13.1268" stroke="#FFB0B0" stroke-linecap="round" stroke-linejoin="round"/>
</svg>
