<svg width="42" height="42" viewBox="0 0 42 42" fill="none" xmlns="http://www.w3.org/2000/svg">
<path d="M42 36.75H5.25V34.125H39.375V15.75H42V36.75Z" fill="#FFD09B"/>
<path d="M34.125 10.5V28.875H2.625V10.5H34.125ZM36.75 7.875H0V31.5H36.75V7.875Z" fill="#FFD09B"/>
<path d="M7.875 15.75H5.25V23.625H7.875V26.25H18.375C16.6345 26.25 14.9653 25.5586 13.7346 24.3279C12.5039 23.0972 11.8125 21.428 11.8125 19.6875C11.8125 17.947 12.5039 16.2778 13.7346 15.0471C14.9653 13.8164 16.6345 13.125 18.375 13.125H7.875V15.75ZM28.875 15.75V13.125H18.375C20.1155 13.125 21.7847 13.8164 23.0154 15.0471C24.2461 16.2778 24.9375 17.947 24.9375 19.6875C24.9375 21.428 24.2461 23.0972 23.0154 24.3279C21.7847 25.5586 20.1155 26.25 18.375 26.25H28.875V23.625H31.5V15.75H28.875Z" fill="#FFD09B"/>
</svg>
