<svg width="49" height="62" viewBox="0 0 49 62" fill="none" xmlns="http://www.w3.org/2000/svg">
<rect width="49" height="62" rx="24.5" fill="#FFF7D1"/>
<path d="M30.82 26.7625C31.6127 26.2447 32.5224 25.9361 33.4651 25.8655C35.0104 25.7306 36.5457 26.2185 37.7333 27.222C38.9209 28.2254 39.6637 29.6623 39.7981 31.2164C39.9151 32.5406 39.5791 33.8651 38.8459 34.9712C38.1947 35.907 37.4612 36.782 36.6543 37.5858L36.4965 37.7416M18.9852 26.7623C18.1969 26.2469 17.2926 25.9384 16.3552 25.8652C15.5897 25.7964 14.8181 25.8805 14.085 26.1124C13.3518 26.3444 12.6714 26.7197 12.0829 27.2169C11.4944 27.7141 11.0094 28.3235 10.6558 29.0098C10.3021 29.6961 10.0868 30.4459 10.0221 31.2162C9.90795 32.538 10.2379 33.8601 10.9592 34.9709C11.6394 36.1329 12.6288 37.0807 13.8159 37.7073M26.6634 19.0247C28.4101 19.3165 30.0418 20.0907 31.3763 21.2611C32.7108 22.4315 33.6956 23.952 34.2208 25.6527M15.5843 25.6827C16.0977 24.1235 16.9924 22.7193 18.1861 21.5984C19.3798 20.4776 20.8343 19.676 22.4162 19.2678M21.9023 21.8825L21.3431 22.4602M28.3714 24.0564L27.4947 24.938M15.3576 30.517L14.4961 31.3987M29.7166 31.7787L28.976 32.5236M21.7058 29.5745L20.9652 30.3194M36.8659 30.9578L36.3217 31.5051M24.4718 16.0907C23.8745 16.0907 23.3017 16.3292 22.8793 16.7539C22.457 17.1787 22.2197 17.755 22.2197 18.3557C22.2242 18.5825 22.2598 18.8075 22.3255 19.0245C22.4556 19.5036 22.7396 19.9258 23.1333 20.2255C23.527 20.5252 24.0083 20.6857 24.502 20.6816C25.0993 20.6816 25.6722 20.4428 26.0945 20.018C26.5169 19.5932 26.7541 19.0173 26.7541 18.4166C26.7623 18.1115 26.7091 17.8076 26.5977 17.5237C26.4862 17.2398 26.3189 16.9816 26.1058 16.7643C25.8926 16.5471 25.638 16.3754 25.3572 16.2596C25.0764 16.1438 24.7752 16.0865 24.4718 16.0907ZM24.4718 16.0907C24.313 15.2164 24.4352 14.3757 24.767 13.552C25.0989 12.7283 25.6571 12.0165 26.3763 11.5M36.4965 37.7416C36.3096 39.8661 35.7343 41.9421 34.7952 43.8638C34.4654 44.7247 33.9698 45.5115 33.337 46.1793C32.7041 46.8471 31.9463 47.3826 31.1072 47.7551C29.2189 48.3364 27.631 48.5 25.2729 48.5C22.9147 48.5 21.1202 48.3747 19.1363 47.7551C18.2971 47.3826 17.5394 46.8471 16.9065 46.1793C16.2736 45.5115 15.7781 44.7247 15.4483 43.8638C14.3132 41.4933 13.7291 38.8942 13.7403 36.2631C13.7531 35.9017 13.85 35.5482 14.0233 35.2314C14.1965 34.9145 14.4413 34.643 14.7379 34.4386C15.1901 34.2492 15.6804 34.1697 16.1689 34.2067C16.6574 34.2436 17.1303 34.3963 17.5493 34.6517C18.3773 35.1753 19.3371 35.4496 20.3152 35.4422C22.3104 35.1685 23.2626 32.6905 25.4543 32.9946C27.268 33.253 28.2354 35.1989 29.9887 35.4422C30.9712 35.4475 31.9353 35.1734 32.7698 34.6517C33.1841 34.3917 33.6549 34.2363 34.1419 34.1992C34.6288 34.1622 35.1175 34.2443 35.566 34.4386C35.8652 34.6403 36.1119 34.9114 36.2855 35.2288C36.4591 35.5462 36.5545 35.901 36.5636 36.2631C36.5622 36.7576 36.5397 37.2509 36.4965 37.7416Z" stroke="#FFB0B0" stroke-linecap="round" stroke-linejoin="round"/>
</svg>
