<svg width="49" height="62" viewBox="0 0 49 62" fill="none" xmlns="http://www.w3.org/2000/svg">
<rect width="49" height="62" rx="24.5" fill="#FFF7D1"/>
<path d="M32.2251 21.0801C33.5593 26.5309 33.3394 32.922 30.4803 37.741C29.4393 39.504 30.5683 41.37 31.1694 43.3387C31.58 44.661 32.3131 46.0567 31.8292 47.3496C31.5913 47.9399 31.1877 48.4484 30.6672 48.8134C30.1467 49.1785 29.5317 49.3845 28.8968 49.4064C27.2178 49.5312 25.5319 49.5312 23.853 49.4064C16.6978 48.9656 23.9703 41.2083 21.9176 37.7557C20.1852 34.5348 19.302 30.9243 19.3517 27.2658C19.3517 25.2236 19.1171 22.0941 20.7006 20.522C23.0172 18.2301 27.152 18.2154 29.7765 19.4495M19.6596 30.6005C19.8062 32.4076 21.8589 32.6722 23.2518 32.2462C24.6447 31.8201 26.023 30.6152 27.6505 30.292C28.6183 30.0555 29.6387 30.1745 30.5264 30.6274C31.4142 31.0803 32.1105 31.8372 32.489 32.7605M26.7268 35.6252L35.1429 12.5M22.8413 46.409C25.0269 47.0981 27.371 47.0981 29.5566 46.409M19.293 27.427C18.9986 27.4862 18.699 27.5158 18.3987 27.5153C17.2321 27.5153 16.1132 27.0509 15.2883 26.2244C14.4634 25.3978 14 24.2767 14 23.1077C14 21.9387 14.4634 20.8176 15.2883 19.991C16.1132 19.1644 17.2321 18.7001 18.3987 18.7001C19.5652 18.7001 20.6841 19.1644 21.509 19.991C22.3339 20.8176 22.7973 21.9387 22.7973 23.1077M19.7329 22.3878C21.1856 23.0575 22.7595 23.4224 24.3581 23.4603C25.9567 23.4982 27.5461 23.2081 29.0287 22.608" stroke="#FFB0B0" stroke-linecap="round" stroke-linejoin="round"/>
</svg>
