<svg width="41" height="41" viewBox="0 0 41 41" fill="none" xmlns="http://www.w3.org/2000/svg">
<rect y="0.325195" width="40.3" height="40.3" rx="20" fill="#F8F8F8"/>
<path d="M13.5408 22.8047C13.6699 23.3642 13.9898 23.8613 14.4456 24.2105C14.9014 24.5598 15.4646 24.7393 16.0384 24.7183H28.9171C29.4904 24.7391 30.0529 24.5594 30.508 24.2101C30.963 23.8608 31.2822 23.3638 31.4103 22.8047L32.5333 15.0919C32.6093 14.6995 32.5969 14.2952 32.4974 13.9082C32.3978 13.5212 32.2134 13.1611 31.9576 12.8542C31.7018 12.5472 31.3809 12.3009 31.0182 12.1332C30.6554 11.9655 30.2601 11.8806 29.8605 11.8846H11.8293M13.5408 22.8047L11.8293 11.8846M13.5408 22.8047C13.5408 22.8047 14.0709 28.6174 19.8746 28.8599H30.2693M11.8293 11.8846L11.3261 8.68165C11.2465 8.25218 11.0194 7.86401 10.6839 7.5843C10.3484 7.30459 9.92575 7.15097 9.48896 7.1499H7.80005M18.8055 31.0027C18.8055 32.1886 17.8442 33.1499 16.6583 33.1499C15.4724 33.1499 14.5111 32.1886 14.5111 31.0027C14.5111 29.8168 15.4724 28.8555 16.6583 28.8555C17.8442 28.8555 18.8055 29.8168 18.8055 31.0027ZM32.4164 31.0027C32.4164 32.1886 31.4551 33.1499 30.2692 33.1499C29.0834 33.1499 28.122 32.1886 28.122 31.0027C28.122 29.8168 29.0834 28.8555 30.2692 28.8555C31.4551 28.8555 32.4164 29.8168 32.4164 31.0027Z" stroke="#FFB0B0" stroke-width="2" stroke-linecap="round" stroke-linejoin="round"/>
</svg>
