<svg width="12" height="13" viewBox="0 0 12 13" fill="none" xmlns="http://www.w3.org/2000/svg">
<path d="M5.68193 3.8776L7.57509 1.521C7.81006 1.23177 8.14996 1.04727 8.52052 1.0079C8.89108 0.968522 9.26214 1.07746 9.55263 1.31086C9.84143 1.54613 10.0256 1.88598 10.0649 2.25639C10.1043 2.62679 9.99568 2.99775 9.76278 3.28845L7.86967 5.64505M1.87212 11.7133H11M5.70358 3.84229L1.5442 8.99145L1.03555 10.6548C0.98803 10.8106 0.988161 10.9769 1.03588 11.1326C1.0836 11.2883 1.17673 11.4262 1.30337 11.5286C1.43 11.6309 1.58434 11.6931 1.74657 11.7071C1.9088 11.7211 2.07152 11.6863 2.21385 11.6072L3.73188 10.7589L7.8893 5.60974C8.00561 5.4662 8.09249 5.30112 8.14489 5.12396C8.19729 4.9468 8.21418 4.76105 8.19466 4.57733C8.17514 4.39362 8.11958 4.21553 8.03112 4.05334C7.94266 3.89115 7.82308 3.74803 7.6792 3.63215C7.53572 3.51613 7.37077 3.42955 7.1938 3.37732C7.01684 3.32509 6.83128 3.30823 6.64781 3.32774C6.46433 3.34726 6.28651 3.40276 6.12449 3.49104C5.96246 3.57933 5.81944 3.69869 5.70358 3.84229Z" stroke="#E95322" stroke-width="0.981915" stroke-linecap="round" stroke-linejoin="round"/>
</svg>
